<svg xmlns="http://www.w3.org/2000/svg" width="32" height="32" viewBox="0 0 32 32">
    <g fill="none" fill-rule="evenodd">
        <path fill="#FFF" stroke="#676767" stroke-linecap="square" d="M1 24.182V7.818C1 6.814 1.895 6 3 6h26c1.105 0 2 .814 2 1.818v16.364C31 25.186 30.105 26 29 26H3c-1.105 0-2-.814-2-1.818z"/>
        <path fill="#676767" d="M14.915 20.79a4.707 4.707 0 0 1-1.901-.642v-1.163l.054-.027c.356.228.682.406.978.533a4 4 0 0 0 .978.274l.383-3.433c-.784-.283-1.381-.629-1.792-1.04-.41-.41-.615-.934-.615-1.572 0-.529.125-.987.376-1.375.25-.387.593-.683 1.026-.888a3.328 3.328 0 0 1 1.443-.308h.136L16.104 10h.862l-.137 1.217a3.943 3.943 0 0 1 1.45.52v1.094l-.055.027a5.544 5.544 0 0 0-.759-.41c-.232-.1-.48-.173-.745-.219l-.356 3.241a8.5 8.5 0 0 1 1.382.609c.355.205.633.474.834.807.2.333.3.759.3 1.279 0 .848-.291 1.506-.875 1.976-.583.47-1.33.704-2.242.704l-.178 1.655h-.862l.192-1.71zm.957-8.63c-.565 0-.992.128-1.279.384-.287.255-.43.606-.43 1.053 0 .401.102.722.307.964.205.242.559.449 1.06.622l.342-3.022zm.014 7.66c.556-.028.996-.183 1.32-.466.323-.282.485-.656.485-1.121 0-.438-.112-.77-.335-.998-.224-.228-.595-.433-1.115-.616l-.355 3.2z"/>
    </g>
</svg>
