<svg width="32" height="32" viewBox="0 0 32 32" fill="none" xmlns="http://www.w3.org/2000/svg">
<path fill-rule="evenodd" clip-rule="evenodd" d="M16.1737 16V16C12.9725 16 10.3766 13.404 10.3766 10.2029V9.04344C10.3766 5.84228 12.9725 3.24634 16.1737 3.24634V3.24634C19.3748 3.24634 21.9708 5.84228 21.9708 9.04344V10.2029C21.9708 13.404 19.3748 16 16.1737 16Z" stroke="#676767"/>
<path fill-rule="evenodd" clip-rule="evenodd" d="M27.768 26.3281C27.768 24.2412 26.3802 22.4058 24.3663 21.8574C22.1703 21.258 19.1721 20.6377 16.1738 20.6377C13.1755 20.6377 10.1773 21.258 7.98133 21.8574C5.96742 22.4058 4.57959 24.2412 4.57959 26.3281V28.7536H27.768V26.3281Z" stroke="#676767"/>
</svg>
