<?xml version="1.0" encoding="UTF-8"?>
<svg width="20px" height="20px" viewBox="0 0 20 20" version="1.1" xmlns="http://www.w3.org/2000/svg" xmlns:xlink="http://www.w3.org/1999/xlink">
    <!-- Generator: Sketch 56.3 (81716) - https://sketch.com -->
    <title>apple</title>
    <desc>Created with Sketch.</desc>
    <g id="Symbols" stroke="none" stroke-width="1" fill="none" fill-rule="evenodd">
        <g id="downlaod-app" transform="translate(-282.000000, -78.000000)" fill="#1C1C1C">
            <g id="Group-3">
                <g transform="translate(282.000000, 78.000000)">
                    <g id="Group-5">
                        <g id="apple" transform="translate(2.000000, 0.000000)">
                            <g id="_Group_3">
                                <path d="M13.2289778,10.4104512 C13.2479839,8.90676111 14.0213629,7.5178089 15.2781604,6.73021621 C14.4817018,5.57075753 13.19551,4.86199066 11.8075865,4.81772712 C10.3473778,4.66149667 8.93176908,5.70837189 8.18767343,5.70837189 C7.42917778,5.70837189 6.2835256,4.83323848 5.04984734,4.85911144 C3.42664844,4.91256663 1.95007097,5.83047334 1.16035169,7.27699621 C-0.52138744,10.2449139 0.733038647,14.6067537 2.34400386,17.0057944 C3.15000386,18.1805364 4.09198647,19.4927535 5.32455169,19.4462194 C6.53069082,19.3952269 6.98116039,18.6622485 8.43707343,18.6622485 C9.87947343,18.6622485 10.3021082,19.4462194 11.5596821,19.4166326 C12.8539256,19.395218 13.6693604,18.2366698 14.4470821,17.0508039 C15.0261918,16.2137573 15.4718158,15.2886385 15.7674473,14.3097155 C14.2302791,13.6470092 13.2307719,12.1116971 13.2289778,10.4104512 L13.2289778,10.4104512 Z" id="_Path_"></path>
                                <path d="M10.8536473,3.23995553 C11.5593226,2.3764529 11.9069821,1.26656657 11.8227952,0.145996894 C10.7446802,0.261419599 9.74880404,0.786642515 9.03359517,1.61701485 C8.32735928,2.43628876 7.96958181,3.50811836 8.03906473,4.59642871 C9.13163589,4.60789539 10.1690092,4.10793884 10.8536473,3.23995553 L10.8536473,3.23995553 Z" id="_Path_2"></path>
                            </g>
                        </g>
                    </g>
                </g>
            </g>
        </g>
    </g>
</svg>